<?xml version="1.0" standalone="no"?>
<!DOCTYPE svg PUBLIC "-//W3C//DTD SVG 20010904//EN"
 "http://www.w3.org/TR/2001/REC-SVG-20010904/DTD/svg10.dtd">
<svg version="1.0" xmlns="http://www.w3.org/2000/svg"
 width="765.000000pt" height="765.000000pt" viewBox="0 0 765.000000 765.000000"
 preserveAspectRatio="xMidYMid meet">
<metadata>
Created by potrace 1.11, written by Peter Selinger 2001-2013
</metadata>
<g transform="translate(0.000000,765.000000) scale(0.100000,-0.100000)"
fill="#000000" stroke="none">
<path d="M3605 7643 c-484 -31 -936 -190 -1290 -453 -368 -273 -652 -663 -825
-1130 -52 -142 -112 -377 -136 -530 -21 -138 -24 -455 -6 -600 52 -404 182
-723 430 -1053 88 -116 202 -247 382 -436 78 -82 155 -168 171 -192 64 -97
121 -277 153 -484 30 -197 37 -389 35 -995 -2 -633 2 -713 42 -839 11 -35 33
-83 49 -106 53 -78 174 -135 347 -165 l72 -13 50 -83 c182 -297 390 -479 616
-539 80 -22 232 -22 314 0 132 34 260 115 382 241 94 99 142 162 228 305 l67
112 95 21 c120 27 183 58 219 108 54 74 55 91 52 718 -5 871 22 1209 120 1520
51 161 103 247 259 430 464 543 557 670 680 925 280 579 245 1286 -97 1955
-310 609 -838 1032 -1497 1200 -287 73 -614 103 -912 83z m440 -303 c690 -64
1227 -373 1584 -911 402 -606 483 -1355 206 -1914 -94 -191 -198 -333 -515
-705 -272 -320 -291 -344 -350 -465 -134 -275 -194 -610 -216 -1212 l-7 -183
-66 0 c-36 0 -256 7 -489 15 -374 13 -473 13 -845 0 -232 -8 -445 -15 -473
-15 l-51 0 -6 293 c-11 533 -62 829 -187 1077 -57 113 -99 167 -268 343 -207
216 -312 340 -413 491 -210 311 -301 595 -316 981 -13 364 69 721 251 1083
101 201 216 361 381 531 260 267 565 440 939 532 111 27 277 54 386 62 103 8
353 6 455 -3z m235 -5676 c323 -11 467 -20 472 -28 4 -6 8 -149 8 -319 l0
-307 -24 -9 c-77 -30 -452 -67 -832 -82 -340 -14 -674 -2 -869 31 -142 24
-186 43 -197 85 -23 90 -39 572 -20 602 6 10 110 16 393 26 526 19 543 19
1069 1z"/>
<path d="M3071 5130 c-50 -60 -91 -112 -91 -114 0 -3 160 -136 355 -297 l355
-292 0 -1048 0 -1049 145 0 145 0 0 1018 0 1017 365 323 c201 178 365 327 365
331 0 4 -43 56 -96 114 l-95 107 -43 -37 c-434 -384 -598 -528 -604 -531 -4
-1 -163 126 -354 283 -191 157 -349 285 -351 285 -3 0 -46 -49 -96 -110z"/>
</g>
</svg>
