<?xml version="1.0" encoding="utf-8"?>
<!-- Generator: Adobe Illustrator 17.1.0, SVG Export Plug-In . SVG Version: 6.00 Build 0)  -->
<!DOCTYPE svg PUBLIC "-//W3C//DTD SVG 1.1//EN" "http://www.w3.org/Graphics/SVG/1.1/DTD/svg11.dtd">
<svg version="1.1" id="Layer_1" xmlns="http://www.w3.org/2000/svg" xmlns:xlink="http://www.w3.org/1999/xlink" x="0px" y="0px"
	 viewBox="505.8 44.8 807.1 228" enable-background="new 505.8 44.8 807.1 228" xml:space="preserve">
<g>
	<g>
		<g>
			<path fill="#209FDA" d="M856.1,131.3v100.4H755.8V131.3H856.1 M856.1,109.7H755.8c-11.9,0-21.7,9.7-21.7,21.7v100.4
				c0,11.9,9.7,21.7,21.7,21.7h100.4c11.9,0,21.7-9.7,21.7-21.7V131.3C877.8,119.4,868.3,109.7,856.1,109.7L856.1,109.7z"/>
		</g>
	</g>
	<g>
		<g>
			<path fill="#209FDA" d="M648.3,132v100.4H547.9V132L648.3,132 M648.3,110.1H547.9c-11.9,0-21.7,9.7-21.7,21.7v100.4
				c0,11.9,9.7,21.7,21.7,21.7h100.4c11.9,0,21.7-9.7,21.7-21.7V131.8C670,120,660.3,110.1,648.3,110.1L648.3,110.1z"/>
		</g>
	</g>
	<g id="Guide_8_">
		<g>
			<path fill="#B72768" d="M599,131.8c27.4,0,48.9,22.1,48.9,50.4s-21.4,50.4-48.9,50.4c-27.9,0-50.4-22.8-50.4-50.4
				C548.4,154.3,570.9,131.8,599,131.8 M599,109.9c-40,0-72.1,32.3-72.1,72.1c0,40,32.3,72.1,72.1,72.1c39.8,0,70.5-32.3,70.5-72.1
				S638.8,109.9,599,109.9L599,109.9z"/>
		</g>
	</g>
	<g id="Guide_15_">
		<rect x="531" y="67.4" fill="#B72768" width="18" height="186.4"/>
	</g>
	<g id="Guide_16_">
		<rect x="692.6" y="67.4" fill="#B72768" width="18" height="186.4"/>
	</g>
	<g id="Guide_23_">
		<g>
			<path fill="#B72768" d="M807.3,132c27.4,0,48.9,22.1,48.9,50.4s-21.4,50.4-48.9,50.4c-27.9,0-50.4-22.8-50.4-50.4
				S779.4,132,807.3,132 M807.3,110.3c-40,0-72.1,32.3-72.1,72.1c0,40,32.3,72.1,72.1,72.1c39.8,0,70.5-32.3,70.5-72.1
				S847.3,110.3,807.3,110.3L807.3,110.3z"/>
		</g>
	</g>
	<g>
		<path fill="#209FDA" d="M1021.3,212.7v19.9H920.9V132.2h100.4v25.9h21.7v-25.9c0-12.2-9.7-21.7-21.7-21.7H920.9
			c-11.9,0-21.7,9.7-21.7,21.7v100.4c0,11.9,9.7,21.7,21.7,21.7h100.4c11.9,0,21.7-9.7,21.7-21.7v-19.9L1021.3,212.7L1021.3,212.7z"
			/>
	</g>
	<g>
		<path fill="#B72768" d="M1011.1,212.7c-8.8,12.4-23,20.1-39.4,20.1c-27.9,0-50.4-22.8-50.4-50.4s22.6-50.4,50.4-50.4
			c18.8,0,34.7,10.4,42.9,26.1h23.4c-9.7-27.9-35.2-47.8-66.5-47.8c-40,0-72.1,32.3-72.1,72.1c0,40,32.3,72.1,72.1,72.1
			c29,0,53.3-17.2,64.1-41.8L1011.1,212.7L1011.1,212.7z"/>
	</g>
	<g enable-background="new    ">
		<path fill="#B72768" d="M1088.9,184.6l16.6-20.7l41.7-44.5h33.8l-55.6,59.3l59.1,78.8H1150l-44.3-60.6l-16.1,13.2v47.3h-29.1V63.3
			h29.1v94.8l-1.5,26.6H1088.9z"/>
		<path fill="#B72768" d="M1299.5,218.2c0,13.5-4.9,23.8-14.7,31c-9.8,7.2-23.9,10.8-42.2,10.8c-18.4,0-33.2-2.8-44.3-8.4v-25.3
			c16.2,7.5,31.3,11.2,45.3,11.2c18.1,0,27.1-5.5,27.1-16.4c0-3.5-1-6.4-3-8.7c-2-2.3-5.3-4.7-9.9-7.2c-4.6-2.5-10.9-5.3-19.1-8.5
			c-15.9-6.2-26.7-12.3-32.3-18.5c-5.6-6.2-8.4-14.2-8.4-24c0-11.8,4.8-21,14.3-27.5c9.5-6.5,22.5-9.8,38.9-9.8
			c16.2,0,31.6,3.3,46.1,9.9l-9.5,22.1c-14.9-6.2-27.4-9.2-37.6-9.2c-15.5,0-23.2,4.4-23.2,13.2c0,4.3,2,8,6.1,11
			c4,3,12.8,7.1,26.4,12.4c11.4,4.4,19.7,8.5,24.8,12.1c5.2,3.7,9,7.9,11.5,12.7C1298.3,205.9,1299.5,211.6,1299.5,218.2z"/>
	</g>
</g>
</svg>
