<?xml version="1.0" encoding="utf-8"?>
<!-- Generator: Adobe Illustrator 17.1.0, SVG Export Plug-In . SVG Version: 6.00 Build 0)  -->
<!DOCTYPE svg PUBLIC "-//W3C//DTD SVG 1.1//EN" "http://www.w3.org/Graphics/SVG/1.1/DTD/svg11.dtd">
<svg version="1.1" id="Layer_1" xmlns="http://www.w3.org/2000/svg" xmlns:xlink="http://www.w3.org/1999/xlink" x="0px" y="0px"
	 viewBox="0 0 1343.6 604.5" enable-background="new 0 0 1343.6 604.5" xml:space="preserve">
<g>
	<path fill="#231F20" d="M68.9,73.5h72.5v395.2h119.2v65.9H68.9V73.5z"/>
	<path fill="#231F20" d="M286.3,184.2c0-73.8,38.9-115.9,110-115.9c71.1,0,110,42.2,110,115.9V424c0,73.8-38.9,115.9-110,115.9
		c-71.1,0-110-42.2-110-115.9V184.2z M358.8,428.6c0,32.9,14.5,45.5,37.5,45.5c23.1,0,37.5-12.5,37.5-45.5v-249
		c0-32.9-14.5-45.5-37.5-45.5c-23.1,0-37.5,12.5-37.5,45.5V428.6z"/>
	<path fill="#231F20" d="M763.2,362.7V424c0,73.8-36.9,115.9-108,115.9s-108-42.2-108-115.9V184.2c0-73.8,36.9-115.9,108-115.9
		s108,42.2,108,115.9V229h-68.5v-49.4c0-32.9-14.5-45.5-37.5-45.5c-23.1,0-37.5,12.5-37.5,45.5v249c0,32.9,14.5,44.8,37.5,44.8
		c23.1,0,37.5-11.9,37.5-44.8v-65.9H763.2z"/>
	<path fill="#231F20" d="M876.5,73.5v355.7c0,32.9,14.5,44.8,37.5,44.8c23.1,0,37.5-11.9,37.5-44.8V73.5h68.5v351.1
		c0,73.8-36.9,115.9-108,115.9s-108-42.2-108-115.9V73.5H876.5z"/>
	<path fill="#231F20" d="M1167,68.3c70.5,0,106.7,42.2,106.7,115.9v14.5h-68.5v-19.1c0-32.9-13.2-45.5-36.2-45.5
		c-23.1,0-36.2,12.5-36.2,45.5c0,94.9,141.6,112.6,141.6,244.4c0,73.8-36.9,115.9-108,115.9s-108-42.2-108-115.9v-28.3h68.5v32.9
		c0,32.9,14.5,44.8,37.5,44.8c23.1,0,37.5-11.9,37.5-44.8c0-94.9-141.6-112.6-141.6-244.4C1060.3,110.4,1096.5,68.3,1167,68.3z"/>
</g>
</svg>
